<?xml version="1.0" encoding="UTF-8" standalone="no"?>
<!-- Created with Inkscape (http://www.inkscape.org/) -->

<svg
   xmlns:dc="http://purl.org/dc/elements/1.1/"
   xmlns:cc="http://creativecommons.org/ns#"
   xmlns:rdf="http://www.w3.org/1999/02/22-rdf-syntax-ns#"
   xmlns:svg="http://www.w3.org/2000/svg"
   xmlns="http://www.w3.org/2000/svg"
   xmlns:xlink="http://www.w3.org/1999/xlink"
   xmlns:sodipodi="http://sodipodi.sourceforge.net/DTD/sodipodi-0.dtd"
   xmlns:inkscape="http://www.inkscape.org/namespaces/inkscape"
   width="32"
   height="32"
   id="svg7227"
   sodipodi:version="0.32"
   inkscape:version="0.92.4 (5da689c313, 2019-01-14)"
   sodipodi:docname="logo.svg"
   inkscape:output_extension="org.inkscape.output.svg.inkscape"
   version="1.1">
  <defs
     id="defs7229">
    <linearGradient
       id="linearGradient1284"
       inkscape:collect="always">
      <stop
         id="stop1280"
         offset="0"
         style="stop-color:#000204;stop-opacity:1" />
      <stop
         id="stop1282"
         offset="1"
         style="stop-color:#002790;stop-opacity:1" />
    </linearGradient>
    <linearGradient
       id="linearGradient1187"
       inkscape:collect="always">
      <stop
         id="stop1183"
         offset="0"
         style="stop-color:#ffe773;stop-opacity:1" />
      <stop
         id="stop1185"
         offset="1"
         style="stop-color:#7a0000;stop-opacity:1" />
    </linearGradient>
    <linearGradient
       inkscape:collect="always"
       id="linearGradient1103">
      <stop
         style="stop-color:#73b8ff;stop-opacity:1"
         offset="0"
         id="stop1099" />
      <stop
         style="stop-color:#009014;stop-opacity:1"
         offset="1"
         id="stop1101" />
    </linearGradient>
    <linearGradient
       id="linearGradient1046"
       inkscape:collect="always">
      <stop
         id="stop1042"
         offset="0"
         style="stop-color:#3bff1c;stop-opacity:1" />
      <stop
         id="stop1044"
         offset="1"
         style="stop-color:#000000;stop-opacity:0.97556716" />
    </linearGradient>
    <linearGradient
       id="linearGradient1040"
       inkscape:collect="always">
      <stop
         id="stop1036"
         offset="0"
         style="stop-color:#2fff1c;stop-opacity:1" />
      <stop
         id="stop1038"
         offset="1"
         style="stop-color:#000000;stop-opacity:0.97556716" />
    </linearGradient>
    <linearGradient
       inkscape:collect="always"
       id="linearGradient980">
      <stop
         style="stop-color:#ff1c1c;stop-opacity:1"
         offset="0"
         id="stop976" />
      <stop
         style="stop-color:#000000;stop-opacity:0.97556716"
         offset="1"
         id="stop978" />
    </linearGradient>
    <linearGradient
       id="linearGradient3163">
      <stop
         style="stop-color:#fcaf3e;stop-opacity:1;"
         offset="0"
         id="stop3165" />
      <stop
         style="stop-color:#f57900;stop-opacity:1;"
         offset="1"
         id="stop3167" />
    </linearGradient>
    <linearGradient
       id="linearGradient6204">
      <stop
         id="stop6206"
         offset="0"
         style="stop-color:#120c02;stop-opacity:1;" />
      <stop
         id="stop6208"
         offset="1.0000000"
         style="stop-color:#b97a1b;stop-opacity:1.0000000;" />
    </linearGradient>
    <linearGradient
       id="linearGradient6190">
      <stop
         style="stop-color:#a0670c;stop-opacity:1;"
         offset="0"
         id="stop6192" />
      <stop
         style="stop-color:#e6c99d;stop-opacity:1;"
         offset="1"
         id="stop6194" />
    </linearGradient>
    <linearGradient
       id="linearGradient6210">
      <stop
         id="stop6212"
         offset="0"
         style="stop-color:#f9ead2;stop-opacity:1;" />
      <stop
         id="stop6214"
         offset="1"
         style="stop-color:#e4a546;stop-opacity:1;" />
    </linearGradient>
    <linearGradient
       id="linearGradient4210">
      <stop
         style="stop-color:#eaba6f;stop-opacity:1.0000000;"
         offset="0.0000000"
         id="stop4212" />
      <stop
         style="stop-color:#b97a1b;stop-opacity:1.0000000;"
         offset="1.0000000"
         id="stop4214" />
    </linearGradient>
    <linearGradient
       id="linearGradient4015">
      <stop
         id="stop4017"
         offset="0"
         style="stop-color:#82837d;stop-opacity:1" />
      <stop
         id="stop4019"
         offset="1"
         style="stop-color:#4d4f4c;stop-opacity:1" />
    </linearGradient>
    <radialGradient
       inkscape:collect="always"
       xlink:href="#linearGradient980"
       id="radialGradient982"
       cx="16.283003"
       cy="24.241589"
       fx="16.283003"
       fy="24.241589"
       r="0.51768768"
       gradientTransform="matrix(1,0,0,0.95999998,0,0.96966405)"
       gradientUnits="userSpaceOnUse" />
    <radialGradient
       inkscape:collect="always"
       xlink:href="#linearGradient980"
       id="radialGradient990"
       cx="18.050043"
       cy="24.075926"
       fx="18.050043"
       fy="24.075926"
       r="0.75237274"
       gradientTransform="matrix(1,0,0,1.0091743,0,-0.22088049)"
       gradientUnits="userSpaceOnUse" />
    <radialGradient
       inkscape:collect="always"
       xlink:href="#linearGradient1040"
       id="radialGradient1011"
       gradientUnits="userSpaceOnUse"
       gradientTransform="matrix(0.87923134,-0.47639507,1.1690852,2.1576554,-32.172404,-20.45746)"
       cx="16.283003"
       cy="24.241589"
       fx="16.283003"
       fy="24.241589"
       r="0.51768768" />
    <radialGradient
       inkscape:collect="always"
       xlink:href="#linearGradient1046"
       id="radialGradient1034"
       gradientUnits="userSpaceOnUse"
       gradientTransform="matrix(0.87923134,-0.47639507,1.1690852,2.1576554,-55.913911,-20.45746)"
       cx="16.283003"
       cy="24.241589"
       fx="16.283003"
       fy="24.241589"
       r="0.51768768" />
    <linearGradient
       inkscape:collect="always"
       xlink:href="#linearGradient1103"
       id="linearGradient1107"
       gradientUnits="userSpaceOnUse"
       x1="15.150992"
       y1="20.002588"
       x2="15.269197"
       y2="30.052631" />
    <linearGradient
       inkscape:collect="always"
       xlink:href="#linearGradient1187"
       id="linearGradient1041"
       gradientUnits="userSpaceOnUse"
       x1="15.150992"
       y1="20.002588"
       x2="15.269197"
       y2="30.052631"
       gradientTransform="translate(-20,-1)" />
    <radialGradient
       inkscape:collect="always"
       xlink:href="#linearGradient1040"
       id="radialGradient1047"
       gradientUnits="userSpaceOnUse"
       gradientTransform="matrix(0.87923134,-0.47639507,1.1690852,2.1576554,-32.172404,-20.45746)"
       cx="16.283003"
       cy="24.241589"
       fx="16.283003"
       fy="24.241589"
       r="0.51768768" />
    <radialGradient
       inkscape:collect="always"
       xlink:href="#linearGradient1046"
       id="radialGradient1049"
       gradientUnits="userSpaceOnUse"
       gradientTransform="matrix(0.87923134,-0.47639507,1.1690852,2.1576554,-55.913911,-20.45746)"
       cx="16.283003"
       cy="24.241589"
       fx="16.283003"
       fy="24.241589"
       r="0.51768768" />
    <linearGradient
       inkscape:collect="always"
       xlink:href="#linearGradient1284"
       id="linearGradient1101"
       gradientUnits="userSpaceOnUse"
       x1="15.150992"
       y1="20.002588"
       x2="15.269197"
       y2="30.052631"
       gradientTransform="translate(16,-1)" />
    <radialGradient
       inkscape:collect="always"
       xlink:href="#linearGradient980"
       id="radialGradient1103"
       gradientUnits="userSpaceOnUse"
       gradientTransform="matrix(1,0,0,0.95999998,0,0.96966405)"
       cx="16.283003"
       cy="24.241589"
       fx="16.283003"
       fy="24.241589"
       r="0.51768768" />
    <radialGradient
       inkscape:collect="always"
       xlink:href="#linearGradient980"
       id="radialGradient1105"
       gradientUnits="userSpaceOnUse"
       gradientTransform="matrix(1,0,0,1.0091743,0,-0.22088049)"
       cx="18.050043"
       cy="24.075926"
       fx="18.050043"
       fy="24.075926"
       r="0.75237274" />
  </defs>
  <sodipodi:namedview
     id="base"
     pagecolor="#ffffff"
     bordercolor="#666666"
     borderopacity="1.0"
     inkscape:pageopacity="0.0"
     inkscape:pageshadow="2"
     inkscape:zoom="36.21875"
     inkscape:cx="16"
     inkscape:cy="16"
     inkscape:current-layer="layer1"
     showgrid="true"
     inkscape:grid-bbox="true"
     inkscape:document-units="px"
     inkscape:window-width="2560"
     inkscape:window-height="1405"
     inkscape:window-x="0"
     inkscape:window-y="35"
     inkscape:window-maximized="1"
     inkscape:snap-bbox="true"
     inkscape:bbox-paths="true"
     inkscape:bbox-nodes="true"
     inkscape:snap-bbox-edge-midpoints="true"
     inkscape:snap-bbox-midpoints="true"
     inkscape:snap-object-midpoints="true"
     inkscape:snap-center="true"
     inkscape:snap-global="true">
    <inkscape:grid
       type="xygrid"
       id="grid999"
       empspacing="8" />
    <inkscape:grid
       type="xygrid"
       id="grid1001"
       empspacing="2"
       spacingx="0.5"
       spacingy="0.5"
       color="#ff0000"
       opacity="0.1254902"
       empcolor="#ff0000"
       empopacity="0.25098039"
       dotted="true" />
  </sodipodi:namedview>
  <metadata
     id="metadata7232">
    <rdf:RDF>
      <cc:Work
         rdf:about="">
        <dc:format>image/svg+xml</dc:format>
        <dc:type
           rdf:resource="http://purl.org/dc/dcmitype/StillImage" />
        <dc:title />
      </cc:Work>
    </rdf:RDF>
  </metadata>
  <g
     id="layer1"
     inkscape:label="Layer 1"
     inkscape:groupmode="layer"
     transform="translate(0,-16)">
    <path
       style="opacity:1;fill:none;fill-opacity:0.44787646;fill-rule:nonzero;stroke:#000204;stroke-width:2;stroke-linecap:round;stroke-linejoin:round;stroke-miterlimit:4;stroke-dasharray:none;stroke-dashoffset:0;stroke-opacity:0.49606299;paint-order:normal"
       d="m 11,17 v 0.691406 c -2.95e-4,2.7e-5 -0.01172,0 -0.01172,0 l -0.03906,0.779297 c 0,0 0.04436,-0.0032 0.05078,-0.0039 v 0.605469 c -0.0083,9.98e-4 -0.05078,0.0039 -0.05078,0.0039 l 0.01953,0.78125 c 0,0 0.02593,-0.0093 0.03125,-0.01172 v 0.560547 l -0.08984,0.03711 0.0293,1.28125 -1.279297,-2.214843 -8.660156,5 3.474609,6.015625 L 3,32 v 3 2.929688 l -1.242188,1.242187 0.800782,0.800781 A 4,4 0 0 0 2.177734,40.818359 4,4 0 0 0 2.132812,41 H 1 v 2 h 1.130859 a 4,4 0 0 0 0.427735,1.027344 l -0.800782,0.800781 1.414063,1.414063 0.800781,-0.800782 A 4,4 0 0 0 5,45.867188 V 47 H 7 V 45.869141 A 4,4 0 0 0 8.027344,45.441406 L 8.828125,46.242188 9.070312,46 H 11 v -1.130859 a 4,4 0 0 0 1.027344,-0.427735 L 12.828125,45.242188 14.070312,44 h 3.859376 l 1.242187,1.242188 0.800781,-0.800782 A 4,4 0 0 0 21,44.867188 V 46 h 1.929688 l 0.242187,0.242188 0.800781,-0.800782 A 4,4 0 0 0 25,45.867188 V 47 h 2 v -1.130859 a 4,4 0 0 0 1.027344,-0.427735 l 0.800781,0.800782 1.414063,-1.414063 -0.800782,-0.800781 A 4,4 0 0 0 29.867188,43 H 31 V 41 H 29.869141 A 4,4 0 0 0 29.441406,39.972656 L 30.242188,39.171875 29,37.929688 V 32 L 27.525391,30.525391 31,24.509766 l -8.660156,-5 L 21,21.830078 V 17 Z"
       id="path1305"
       inkscape:connector-curvature="0" />
    <g
       transform="translate(7,-10)"
       id="g2481"
       style="fill:#191b1c;fill-opacity:1">
      <path
         inkscape:connector-curvature="0"
         id="path2469"
         transform="translate(0,16)"
         d="m 2,30 v 2.585938 L 0.171875,30.757812 -1.2421875,32.171875 0.5859375,34 H -2 v 2 H 0.5859375 L -1.2421875,37.828125 0.171875,39.242188 2,37.414062 V 40 H 4 V 37.414062 L 5.828125,39.242188 7.2421875,37.828125 5.4140625,36 H 8 V 34 H 5.4140625 L 7.2421875,32.171875 5.828125,30.757812 4,32.585938 V 30 Z"
         style="opacity:1;fill:#191b1c;fill-opacity:1;fill-rule:nonzero;stroke:#000000;stroke-width:0.5;stroke-linecap:round;stroke-linejoin:round;stroke-miterlimit:4;stroke-dasharray:none;stroke-dashoffset:0;stroke-opacity:1;paint-order:markers stroke fill" />
      <circle
         r="4"
         cy="51"
         cx="3"
         id="circle2473"
         style="opacity:1;fill:#191b1c;fill-opacity:1;fill-rule:nonzero;stroke:#000000;stroke-width:0.5;stroke-linecap:round;stroke-linejoin:round;stroke-miterlimit:4;stroke-dasharray:none;stroke-dashoffset:0;stroke-opacity:1;paint-order:markers stroke fill" />
    </g>
    <g
       style="fill:#191b1c;fill-opacity:1"
       id="g2487"
       transform="translate(19,-10)">
      <path
         style="opacity:1;fill:#191b1c;fill-opacity:1;fill-rule:nonzero;stroke:#000000;stroke-width:0.5;stroke-linecap:round;stroke-linejoin:round;stroke-miterlimit:4;stroke-dasharray:none;stroke-dashoffset:0;stroke-opacity:1;paint-order:markers stroke fill"
         d="m 2,30 v 2.585938 L 0.171875,30.757812 -1.2421875,32.171875 0.5859375,34 H -2 v 2 H 0.5859375 L -1.2421875,37.828125 0.171875,39.242188 2,37.414062 V 40 H 4 V 37.414062 L 5.828125,39.242188 7.2421875,37.828125 5.4140625,36 H 8 V 34 H 5.4140625 L 7.2421875,32.171875 5.828125,30.757812 4,32.585938 V 30 Z"
         transform="translate(0,16)"
         id="path2483"
         inkscape:connector-curvature="0" />
      <circle
         style="opacity:1;fill:#191b1c;fill-opacity:1;fill-rule:nonzero;stroke:#000000;stroke-width:0.5;stroke-linecap:round;stroke-linejoin:round;stroke-miterlimit:4;stroke-dasharray:none;stroke-dashoffset:0;stroke-opacity:1;paint-order:markers stroke fill"
         id="circle2485"
         cx="3"
         cy="51"
         r="4" />
    </g>
    <path
       style="fill:#896418;fill-opacity:1;fill-rule:evenodd;stroke:#000000;stroke-width:0.5;stroke-linecap:butt;stroke-linejoin:round;stroke-miterlimit:4;stroke-dasharray:none;stroke-opacity:1"
       d="M 7,28 3,32 V 44 H 29 V 32 l -4,-4 z"
       id="path1183"
       inkscape:connector-curvature="0"
       sodipodi:nodetypes="ccccccc" />
    <path
       style="fill:#5b4310;fill-opacity:1;fill-rule:evenodd;stroke:none;stroke-width:1px;stroke-linecap:butt;stroke-linejoin:miter;stroke-opacity:1"
       d="m 7,28 -4,4 v 3 h 4 z"
       id="path1139"
       inkscape:connector-curvature="0"
       sodipodi:nodetypes="ccccc" />
    <path
       inkscape:connector-curvature="0"
       id="path1143"
       d="m 25,28 4,4 v 3 h -4 z"
       style="fill:#d89f26;fill-opacity:1;fill-rule:evenodd;stroke:none;stroke-width:1px;stroke-linecap:butt;stroke-linejoin:miter;stroke-opacity:1"
       sodipodi:nodetypes="ccccc" />
    <path
       style="fill:#9f751c;fill-rule:evenodd;stroke:none;stroke-width:1px;stroke-linecap:butt;stroke-linejoin:miter;stroke-opacity:1;fill-opacity:1"
       d="m 7,28 h 18 v 7 H 7 Z"
       id="path2168"
       inkscape:connector-curvature="0" />
    <g
       id="g1198"
       transform="rotate(60,-1.6112146,38.01314)">
      <path
         inkscape:connector-curvature="0"
         id="path990"
         d="M -12,19 H 3 v 10 h -15 z"
         style="fill:#ededed;fill-opacity:1;fill-rule:evenodd;stroke:#000000;stroke-width:0.5;stroke-linecap:butt;stroke-linejoin:round;stroke-miterlimit:4;stroke-dasharray:none;stroke-opacity:0.90733595;paint-order:markers stroke fill"
         sodipodi:nodetypes="ccccc" />
      <path
         sodipodi:nodetypes="ccccc"
         style="fill:url(#linearGradient1041);fill-opacity:1;fill-rule:evenodd;stroke:none;stroke-width:1px;stroke-linecap:butt;stroke-linejoin:miter;stroke-opacity:1"
         d="M -12,19 H 3 v 10 h -15 z"
         id="path992"
         inkscape:connector-curvature="0" />
      <g
         transform="translate(2.367519,0.0521436)"
         id="g1181">
        <path
           sodipodi:nodetypes="cccccccccccccccccccc"
           inkscape:connector-curvature="0"
           id="path994"
           d="m -7.326653,25.067332 c 0,0 -2.128031,0.136663 -2.811344,0.507604 -1.366626,1.347102 -1.171393,3.436088 -1.171393,3.436088 l 0.780929,0.03905 c 0,0 -0.234279,-1.893752 0.6442661,-2.30374 L -9.49373,27.3906 c -0.624743,0.195232 -0.4295114,1.659474 -0.4295114,1.659474 l 0.7809294,-0.01952 c 0,0 -0.390464,-0.819976 0.09762,-1.132347 l 0.48808,1.190917 2.596589,-0.05857 0.195233,-1.171394 c 0.644266,0.292848 0.624743,1.112824 0.624743,1.112824 l 0.741882,0.03904 c 0,0 -0.292848,-1.21044 -1.15187,-1.952323 L -5.4329,26.394915 c 1.112824,0.195232 1.444719,2.616112 1.444719,2.616112 l 0.741882,0.01952 c 0,0 -0.468557,-3.162763 -2.049938,-3.68989 z"
           style="fill:#5e6d2c;fill-opacity:1;fill-rule:evenodd;stroke:#000000;stroke-width:0.1;stroke-linecap:butt;stroke-linejoin:miter;stroke-miterlimit:4;stroke-dasharray:none;stroke-opacity:1" />
        <g
           transform="translate(-19.099157,-1.3399816)"
           id="g1031">
          <path
             sodipodi:nodetypes="ccccccccc"
             inkscape:connector-curvature="0"
             id="path1022"
             d="m 11.731638,23.287838 c -0.71786,-0.02761 -1.698014,-0.768679 -2.16894,0.358762 -0.22088,1.256255 0.58557,1.341404 0.626985,1.865994 0.08283,0.66264 0.07204,1.408973 0.403365,1.850733 0.510785,0.427955 1.118206,0.331321 1.711821,0.317516 0.91113,-0.09663 0.897325,-0.483176 0.99396,-0.855911 0,-0.759275 0.207075,-0.345125 0.262295,-1.504746 0.05522,-0.30371 0.768631,-0.424149 0.658191,-1.569964 -0.162598,-1.160482 -1.355667,-0.503799 -2.487677,-0.462384 z"
             style="fill:#b0c46f;fill-opacity:1;fill-rule:evenodd;stroke:#000000;stroke-width:0.1;stroke-linecap:butt;stroke-linejoin:miter;stroke-miterlimit:4;stroke-dasharray:none;stroke-opacity:1" />
          <path
             inkscape:connector-curvature="0"
             id="path1024"
             d="m 10.484402,25.254343 c 0,0 0.415131,0.744083 0.442741,0.675058 0.02761,-0.06902 0.48375,-0.407451 0.48375,-0.407451 l 0.141806,0.453603 0.343737,-0.464058 0.292274,0.506454 0.200376,-0.536433 0.333283,0.459321 0.589859,-0.574092 -0.454178,1.803887 -0.395608,-0.360318 -0.24751,0.473126 -0.371347,-0.461689 -0.275119,0.473126 -0.441354,-0.437429 -0.416925,0.349693 z"
             style="fill:#2f0000;fill-opacity:1;fill-rule:evenodd;stroke:none;stroke-width:1px;stroke-linecap:butt;stroke-linejoin:miter;stroke-opacity:1"
             sodipodi:nodetypes="ccccccccccccccccc" />
          <ellipse
             ry="0.77030528"
             rx="0.83005929"
             cy="24.090393"
             cx="10.484605"
             id="ellipse1026"
             style="opacity:1;vector-effect:none;fill:url(#radialGradient1047);fill-opacity:1;stroke:none;stroke-width:0.1;stroke-linecap:round;stroke-linejoin:bevel;stroke-miterlimit:4;stroke-dasharray:none;stroke-dashoffset:0;stroke-opacity:1;paint-order:fill markers stroke"
             inkscape:transform-center-x="1.3861489"
             inkscape:transform-center-y="-0.078092897" />
          <ellipse
             inkscape:transform-center-y="-0.078092897"
             inkscape:transform-center-x="-1.386149"
             style="opacity:1;vector-effect:none;fill:url(#radialGradient1049);fill-opacity:1;stroke:none;stroke-width:0.1;stroke-linecap:round;stroke-linejoin:bevel;stroke-miterlimit:4;stroke-dasharray:none;stroke-dashoffset:0;stroke-opacity:1;paint-order:fill markers stroke"
             id="ellipse1028"
             cx="-13.256903"
             cy="24.090393"
             rx="0.83005929"
             ry="0.77030528"
             transform="scale(-1,1)" />
        </g>
      </g>
    </g>
    <g
       id="g1156"
       transform="rotate(90,16,25)">
      <path
         sodipodi:nodetypes="ccccc"
         style="fill:#ededed;fill-opacity:1;fill-rule:evenodd;stroke:#000000;stroke-width:0.5;stroke-linecap:butt;stroke-linejoin:round;stroke-miterlimit:4;stroke-dasharray:none;stroke-opacity:0.90733595;paint-order:markers stroke fill"
         d="M 8,20 H 23 V 30 H 8 Z"
         id="path1038"
         inkscape:connector-curvature="0" />
      <g
         id="g1130">
        <path
           sodipodi:nodetypes="ccccc"
           style="fill:url(#linearGradient1107);fill-opacity:1;fill-rule:evenodd;stroke:none;stroke-width:1px;stroke-linecap:butt;stroke-linejoin:miter;stroke-opacity:1"
           d="M 8,20 H 23 V 30 H 8 Z"
           id="path1009"
           inkscape:connector-curvature="0" />
        <g
           id="g1097"
           transform="translate(0.27610009,-0.02761001)">
          <path
             sodipodi:nodetypes="cccccccccccccccccccc"
             inkscape:connector-curvature="0"
             id="path1054"
             d="m 12.397247,26.094942 c 0,0 -2.128031,0.136663 -2.8113439,0.507604 -1.3666257,1.347102 -1.1713934,3.436088 -1.1713934,3.436088 l 0.780929,0.03905 c 0,0 -0.2342787,-1.893752 0.6442664,-2.30374 L 10.23017,28.41821 c -0.6247432,0.195232 -0.4295114,1.659474 -0.4295114,1.659474 l 0.7809294,-0.01952 c 0,0 -0.390464,-0.819976 0.09762,-1.132347 l 0.48808,1.190917 2.596589,-0.05857 0.195233,-1.171394 c 0.644266,0.292848 0.624743,1.112824 0.624743,1.112824 l 0.741882,0.03904 c 0,0 -0.292848,-1.21044 -1.15187,-1.952323 L 14.291,27.422525 c 1.112824,0.195232 1.444719,2.616112 1.444719,2.616112 l 0.741882,0.01952 c 0,0 -0.468557,-3.162763 -2.049938,-3.68989 z"
             style="fill:#5e6d2c;fill-opacity:1;fill-rule:evenodd;stroke:#000000;stroke-width:0.1;stroke-linecap:butt;stroke-linejoin:miter;stroke-miterlimit:4;stroke-dasharray:none;stroke-opacity:1" />
          <g
             id="g1076">
            <path
               style="fill:#fbfbfb;fill-opacity:1;fill-rule:evenodd;stroke:none;stroke-width:1px;stroke-linecap:butt;stroke-linejoin:miter;stroke-opacity:1"
               d="m 17.024252,25.95828 1.913276,-0.05857 -0.761406,3.240855 z"
               id="path1058"
               inkscape:connector-curvature="0" />
            <rect
               style="opacity:1;vector-effect:none;fill:#030303;fill-opacity:1;stroke:none;stroke-width:0.1;stroke-linecap:round;stroke-linejoin:bevel;stroke-miterlimit:4;stroke-dasharray:none;stroke-dashoffset:0;stroke-opacity:1;paint-order:fill markers stroke"
               id="rect1060"
               width="2.167078"
               height="0.33189481"
               x="16.926636"
               y="26.368267" />
            <rect
               y="26.953964"
               x="16.926636"
               height="0.33189481"
               width="2.167078"
               id="rect1062"
               style="opacity:1;vector-effect:none;fill:#030303;fill-opacity:1;stroke:none;stroke-width:0.1;stroke-linecap:round;stroke-linejoin:bevel;stroke-miterlimit:4;stroke-dasharray:none;stroke-dashoffset:0;stroke-opacity:1;paint-order:fill markers stroke" />
            <rect
               style="opacity:1;vector-effect:none;fill:#030303;fill-opacity:1;stroke:none;stroke-width:0.1;stroke-linecap:round;stroke-linejoin:bevel;stroke-miterlimit:4;stroke-dasharray:none;stroke-dashoffset:0;stroke-opacity:1;paint-order:fill markers stroke"
               id="rect1064"
               width="2.167078"
               height="0.33189481"
               x="16.946159"
               y="27.559185" />
            <rect
               y="28.125359"
               x="17.004728"
               height="0.33189481"
               width="2.167078"
               id="rect1066"
               style="opacity:1;vector-effect:none;fill:#030303;fill-opacity:1;stroke:none;stroke-width:0.1;stroke-linecap:round;stroke-linejoin:bevel;stroke-miterlimit:4;stroke-dasharray:none;stroke-dashoffset:0;stroke-opacity:1;paint-order:fill markers stroke" />
            <path
               style="fill:#000000;fill-opacity:1;fill-rule:evenodd;stroke:none;stroke-width:0.1;stroke-linecap:butt;stroke-linejoin:miter;stroke-miterlimit:4;stroke-dasharray:none;stroke-opacity:1"
               d="m 17.160914,25.84114 -1.639951,0.331895 -0.429511,3.865599 0.898069,0.05857 0.253802,-2.264694 0.449034,2.264694 h 3.240855 l 0.136663,-2.186601 0.312371,2.128032 0.976161,0.01952 -0.956638,-4.021784 -1.522811,-0.273326 -0.780929,3.14324 z"
               id="path1056"
               inkscape:connector-curvature="0" />
          </g>
          <g
             transform="translate(0.8785451,0.0780929)"
             id="g1030">
            <path
               style="fill:#f3f1e7;fill-opacity:1;fill-rule:evenodd;stroke:#000000;stroke-width:0.1;stroke-linecap:butt;stroke-linejoin:miter;stroke-miterlimit:4;stroke-dasharray:none;stroke-opacity:1"
               d="m 16.495305,21.642897 c -0.71786,-0.02761 -1.405166,0.656516 -1.446581,1.139691 C 14.827844,24.038843 15.458585,24.47541 15.5,25 c 0.08283,0.66264 0.07204,1.408973 0.403365,1.850733 0.510785,0.427955 1.118206,0.331321 1.711821,0.317516 0.91113,-0.09663 0.897325,-0.483176 0.99396,-0.855911 0,-0.759275 0.207075,-0.345125 0.262295,-1.504746 0.05522,-0.30371 0.358643,-0.30701 0.248203,-1.452825 -0.162598,-1.160482 -1.492329,-1.753285 -2.624339,-1.71187 z"
               id="path966"
               inkscape:connector-curvature="0"
               sodipodi:nodetypes="ccccccccc" />
            <path
               style="fill:#600000;fill-opacity:1;fill-rule:evenodd;stroke:none;stroke-width:1px;stroke-linecap:butt;stroke-linejoin:miter;stroke-opacity:1"
               d="m 16.16566,25.249353 c 0,0 0.317515,0.60742 0.345125,0.538395 0.02761,-0.06902 0.151855,-0.52459 0.151855,-0.52459 l 0.317515,0.648835 0.207075,-0.71786 0.33132,0.66264 0.317516,-0.731665 0.13805,0.63503 0.41415,-0.593615 -0.317515,1.15962 -0.317515,-0.49698 -0.345126,0.648835 -0.234685,-0.676445 -0.372735,0.648835 -0.207075,-0.593615 -0.289905,0.427955 z"
               id="path968"
               inkscape:connector-curvature="0" />
            <ellipse
               style="opacity:1;vector-effect:none;fill:url(#radialGradient982);fill-opacity:1;stroke:none;stroke-width:0.1;stroke-linecap:round;stroke-linejoin:bevel;stroke-miterlimit:4;stroke-dasharray:none;stroke-dashoffset:0;stroke-opacity:1;paint-order:fill markers stroke"
               id="path970"
               cx="16.283003"
               cy="24.241589"
               rx="0.51768768"
               ry="0.49698016" />
            <ellipse
               style="opacity:1;vector-effect:none;fill:url(#radialGradient990);fill-opacity:1;stroke:none;stroke-width:0.1;stroke-linecap:round;stroke-linejoin:bevel;stroke-miterlimit:4;stroke-dasharray:none;stroke-dashoffset:0;stroke-opacity:1;paint-order:fill markers stroke"
               id="path972"
               cx="18.050043"
               cy="24.075926"
               rx="0.75237274"
               ry="0.75927526" />
            <path
               style="fill:#600000;fill-opacity:1;fill-rule:evenodd;stroke:none;stroke-width:1px;stroke-linecap:butt;stroke-linejoin:miter;stroke-opacity:1"
               d="m 16.924935,24.918033 0.101413,-0.477196 v 0 0 0 l 0.124805,0.267956 0.07809,-0.283086 0.268445,0.502723 -0.165948,0.05369 -0.180589,-0.165948 -0.107378,0.204994 z"
               id="path974"
               inkscape:connector-curvature="0" />
          </g>
          <g
             transform="translate(0.62474318,-0.31237159)"
             id="g1052">
            <path
               sodipodi:nodetypes="ccccccccc"
               inkscape:connector-curvature="0"
               id="path999"
               d="m 11.731638,23.287838 c -0.71786,-0.02761 -1.698014,-0.768679 -2.16894,0.358762 -0.22088,1.256255 0.58557,1.341404 0.626985,1.865994 0.08283,0.66264 0.07204,1.408973 0.403365,1.850733 0.510785,0.427955 1.118206,0.331321 1.711821,0.317516 0.91113,-0.09663 0.897325,-0.483176 0.99396,-0.855911 0,-0.759275 0.207075,-0.345125 0.262295,-1.504746 0.05522,-0.30371 0.768631,-0.424149 0.658191,-1.569964 -0.162598,-1.160482 -1.355667,-0.503799 -2.487677,-0.462384 z"
               style="fill:#b0c46f;fill-opacity:1;fill-rule:evenodd;stroke:#000000;stroke-width:0.1;stroke-linecap:butt;stroke-linejoin:miter;stroke-miterlimit:4;stroke-dasharray:none;stroke-opacity:1" />
            <path
               inkscape:connector-curvature="0"
               id="path1001"
               d="m 10.484402,25.254343 c 0,0 0.415131,0.744083 0.442741,0.675058 0.02761,-0.06902 0.48375,-0.407451 0.48375,-0.407451 l 0.141806,0.453603 0.343737,-0.464058 0.292274,0.506454 0.200376,-0.536433 0.333283,0.459321 0.589859,-0.574092 -0.454178,1.803887 -0.395608,-0.360318 -0.24751,0.473126 -0.371347,-0.461689 -0.275119,0.473126 -0.441354,-0.437429 -0.416925,0.349693 z"
               style="fill:#2f0000;fill-opacity:1;fill-rule:evenodd;stroke:none;stroke-width:1px;stroke-linecap:butt;stroke-linejoin:miter;stroke-opacity:1"
               sodipodi:nodetypes="ccccccccccccccccc" />
            <ellipse
               ry="0.77030528"
               rx="0.83005929"
               cy="24.090393"
               cx="10.484605"
               id="ellipse1003"
               style="opacity:1;vector-effect:none;fill:url(#radialGradient1011);fill-opacity:1;stroke:none;stroke-width:0.1;stroke-linecap:round;stroke-linejoin:bevel;stroke-miterlimit:4;stroke-dasharray:none;stroke-dashoffset:0;stroke-opacity:1;paint-order:fill markers stroke"
               inkscape:transform-center-x="1.3861489"
               inkscape:transform-center-y="-0.078092897" />
            <ellipse
               inkscape:transform-center-y="-0.078092897"
               inkscape:transform-center-x="-1.386149"
               style="opacity:1;vector-effect:none;fill:url(#radialGradient1034);fill-opacity:1;stroke:none;stroke-width:0.1;stroke-linecap:round;stroke-linejoin:bevel;stroke-miterlimit:4;stroke-dasharray:none;stroke-dashoffset:0;stroke-opacity:1;paint-order:fill markers stroke"
               id="ellipse1032"
               cx="-13.256903"
               cy="24.090393"
               rx="0.83005929"
               ry="0.77030528"
               transform="scale(-1,1)" />
          </g>
        </g>
      </g>
      <rect
         y="28.593916"
         x="17.004728"
         height="0.33189481"
         width="2.167078"
         id="rect1068"
         style="opacity:1;vector-effect:none;fill:#030303;fill-opacity:1;stroke:none;stroke-width:0.1;stroke-linecap:round;stroke-linejoin:bevel;stroke-miterlimit:4;stroke-dasharray:none;stroke-dashoffset:0;stroke-opacity:1;paint-order:fill markers stroke" />
    </g>
    <g
       id="g1303"
       transform="rotate(120,25.90951,23.775535)">
      <path
         sodipodi:nodetypes="ccccc"
         style="fill:#ededed;fill-opacity:1;fill-rule:evenodd;stroke:#000000;stroke-width:0.5;stroke-linecap:butt;stroke-linejoin:round;stroke-miterlimit:4;stroke-dasharray:none;stroke-opacity:0.90733595;paint-order:markers stroke fill"
         d="M 24,19 H 39 V 29 H 24 Z"
         id="path1051"
         inkscape:connector-curvature="0" />
      <path
         inkscape:connector-curvature="0"
         id="path1053"
         d="M 24,19 H 39 V 29 H 24 Z"
         style="fill:url(#linearGradient1101);fill-opacity:1;fill-rule:evenodd;stroke:none;stroke-width:1px;stroke-linecap:butt;stroke-linejoin:miter;stroke-opacity:1"
         sodipodi:nodetypes="ccccc" />
      <g
         transform="translate(-2)"
         id="g1278">
        <g
           id="g1069"
           transform="translate(16.2761,-1.02761)">
          <path
             inkscape:connector-curvature="0"
             id="path1057"
             d="m 17.024252,25.95828 1.913276,-0.05857 -0.761406,3.240855 z"
             style="fill:#fbfbfb;fill-opacity:1;fill-rule:evenodd;stroke:none;stroke-width:1px;stroke-linecap:butt;stroke-linejoin:miter;stroke-opacity:1" />
          <rect
             y="26.368267"
             x="16.926636"
             height="0.33189481"
             width="2.167078"
             id="rect1059"
             style="opacity:1;vector-effect:none;fill:#030303;fill-opacity:1;stroke:none;stroke-width:0.1;stroke-linecap:round;stroke-linejoin:bevel;stroke-miterlimit:4;stroke-dasharray:none;stroke-dashoffset:0;stroke-opacity:1;paint-order:fill markers stroke" />
          <rect
             style="opacity:1;vector-effect:none;fill:#030303;fill-opacity:1;stroke:none;stroke-width:0.1;stroke-linecap:round;stroke-linejoin:bevel;stroke-miterlimit:4;stroke-dasharray:none;stroke-dashoffset:0;stroke-opacity:1;paint-order:fill markers stroke"
             id="rect1061"
             width="2.167078"
             height="0.33189481"
             x="16.926636"
             y="26.953964" />
          <rect
             y="27.559185"
             x="16.946159"
             height="0.33189481"
             width="2.167078"
             id="rect1063"
             style="opacity:1;vector-effect:none;fill:#030303;fill-opacity:1;stroke:none;stroke-width:0.1;stroke-linecap:round;stroke-linejoin:bevel;stroke-miterlimit:4;stroke-dasharray:none;stroke-dashoffset:0;stroke-opacity:1;paint-order:fill markers stroke" />
          <rect
             style="opacity:1;vector-effect:none;fill:#030303;fill-opacity:1;stroke:none;stroke-width:0.1;stroke-linecap:round;stroke-linejoin:bevel;stroke-miterlimit:4;stroke-dasharray:none;stroke-dashoffset:0;stroke-opacity:1;paint-order:fill markers stroke"
             id="rect1065"
             width="2.167078"
             height="0.33189481"
             x="17.004728"
             y="28.125359" />
          <path
             inkscape:connector-curvature="0"
             id="path1067"
             d="m 17.160914,25.84114 -1.639951,0.331895 -0.429511,3.865599 0.898069,0.05857 0.253802,-2.264694 0.449034,2.264694 h 3.240855 l 0.136663,-2.186601 0.312371,2.128032 0.976161,0.01952 -0.956638,-4.021784 -1.522811,-0.273326 -0.780929,3.14324 z"
             style="fill:#000000;fill-opacity:1;fill-rule:evenodd;stroke:none;stroke-width:0.1;stroke-linecap:butt;stroke-linejoin:miter;stroke-miterlimit:4;stroke-dasharray:none;stroke-opacity:1" />
        </g>
        <g
           id="g1081"
           transform="translate(17.154645,-0.9495171)">
          <path
             sodipodi:nodetypes="ccccccccc"
             inkscape:connector-curvature="0"
             id="path1071"
             d="m 16.495305,21.642897 c -0.71786,-0.02761 -1.405166,0.656516 -1.446581,1.139691 C 14.827844,24.038843 15.458585,24.47541 15.5,25 c 0.08283,0.66264 0.07204,1.408973 0.403365,1.850733 0.510785,0.427955 1.118206,0.331321 1.711821,0.317516 0.91113,-0.09663 0.897325,-0.483176 0.99396,-0.855911 0,-0.759275 0.207075,-0.345125 0.262295,-1.504746 0.05522,-0.30371 0.358643,-0.30701 0.248203,-1.452825 -0.162598,-1.160482 -1.492329,-1.753285 -2.624339,-1.71187 z"
             style="fill:#f3f1e7;fill-opacity:1;fill-rule:evenodd;stroke:#000000;stroke-width:0.1;stroke-linecap:butt;stroke-linejoin:miter;stroke-miterlimit:4;stroke-dasharray:none;stroke-opacity:1" />
          <path
             inkscape:connector-curvature="0"
             id="path1073"
             d="m 16.16566,25.249353 c 0,0 0.317515,0.60742 0.345125,0.538395 0.02761,-0.06902 0.151855,-0.52459 0.151855,-0.52459 l 0.317515,0.648835 0.207075,-0.71786 0.33132,0.66264 0.317516,-0.731665 0.13805,0.63503 0.41415,-0.593615 -0.317515,1.15962 -0.317515,-0.49698 -0.345126,0.648835 -0.234685,-0.676445 -0.372735,0.648835 -0.207075,-0.593615 -0.289905,0.427955 z"
             style="fill:#600000;fill-opacity:1;fill-rule:evenodd;stroke:none;stroke-width:1px;stroke-linecap:butt;stroke-linejoin:miter;stroke-opacity:1" />
          <ellipse
             ry="0.49698016"
             rx="0.51768768"
             cy="24.241589"
             cx="16.283003"
             id="ellipse1075"
             style="opacity:1;vector-effect:none;fill:url(#radialGradient1103);fill-opacity:1;stroke:none;stroke-width:0.1;stroke-linecap:round;stroke-linejoin:bevel;stroke-miterlimit:4;stroke-dasharray:none;stroke-dashoffset:0;stroke-opacity:1;paint-order:fill markers stroke" />
          <ellipse
             ry="0.75927526"
             rx="0.75237274"
             cy="24.075926"
             cx="18.050043"
             id="ellipse1077"
             style="opacity:1;vector-effect:none;fill:url(#radialGradient1105);fill-opacity:1;stroke:none;stroke-width:0.1;stroke-linecap:round;stroke-linejoin:bevel;stroke-miterlimit:4;stroke-dasharray:none;stroke-dashoffset:0;stroke-opacity:1;paint-order:fill markers stroke" />
          <path
             inkscape:connector-curvature="0"
             id="path1079"
             d="m 16.924935,24.918033 0.101413,-0.477196 v 0 0 0 l 0.124805,0.267956 0.07809,-0.283086 0.268445,0.502723 -0.165948,0.05369 -0.180589,-0.165948 -0.107378,0.204994 z"
             style="fill:#600000;fill-opacity:1;fill-rule:evenodd;stroke:none;stroke-width:1px;stroke-linecap:butt;stroke-linejoin:miter;stroke-opacity:1" />
        </g>
        <rect
           style="opacity:1;vector-effect:none;fill:#030303;fill-opacity:1;stroke:none;stroke-width:0.1;stroke-linecap:round;stroke-linejoin:bevel;stroke-miterlimit:4;stroke-dasharray:none;stroke-dashoffset:0;stroke-opacity:1;paint-order:fill markers stroke"
           id="rect1097"
           width="2.167078"
           height="0.33189481"
           x="33.00473"
           y="27.593916" />
      </g>
    </g>
    <path
       sodipodi:nodetypes="ccccc"
       inkscape:connector-curvature="0"
       id="path1192"
       d="M 3,32 H 29 V 44 H 3 Z"
       style="fill:#9f751c;fill-opacity:1;fill-rule:evenodd;stroke:#000000;stroke-width:0.5;stroke-linecap:butt;stroke-linejoin:round;stroke-miterlimit:4;stroke-dasharray:none;stroke-opacity:1;paint-order:markers stroke fill" />
    <path
       style="opacity:1;fill:none;fill-opacity:1;fill-rule:nonzero;stroke:#000000;stroke-width:1.5;stroke-linecap:round;stroke-linejoin:round;stroke-miterlimit:4;stroke-dasharray:none;stroke-dashoffset:0;stroke-opacity:0.44705882;paint-order:normal"
       d="m 5,37 v 1.130859 A 4,4 0 0 0 3.972656,38.558594 L 3.171875,37.757812 1.757812,39.171875 2.558594,39.972656 A 4,4 0 0 0 2.132812,41 H 1 v 2 h 1.130859 a 4,4 0 0 0 0.427735,1.027344 l -0.800782,0.800781 1.414063,1.414063 0.800781,-0.800782 A 4,4 0 0 0 5,45.867188 V 47 H 7 V 45.869141 A 4,4 0 0 0 8.0273438,45.441406 L 8.828125,46.242188 10.242188,44.828125 9.4414062,44.027344 A 4,4 0 0 0 9.8671875,43 H 11 V 41 H 9.8691406 A 4,4 0 0 0 9.4414062,39.972656 L 10.242188,39.171875 8.828125,37.757812 8.0273438,38.558594 A 4,4 0 0 0 7,38.132812 V 37 Z"
       id="path967"
       inkscape:connector-curvature="0" />
    <g
       id="g2439"
       transform="translate(3,-9)">
      <path
         style="opacity:1;fill:#494e52;fill-opacity:1;fill-rule:nonzero;stroke:#000000;stroke-width:0.5;stroke-linecap:round;stroke-linejoin:round;stroke-miterlimit:4;stroke-dasharray:none;stroke-dashoffset:0;stroke-opacity:1;paint-order:markers stroke fill"
         d="m 2,30 v 2.585938 L 0.171875,30.757812 -1.2421875,32.171875 0.5859375,34 H -2 v 2 H 0.5859375 L -1.2421875,37.828125 0.171875,39.242188 2,37.414062 V 40 H 4 V 37.414062 L 5.828125,39.242188 7.2421875,37.828125 5.4140625,36 H 8 V 34 H 5.4140625 L 7.2421875,32.171875 5.828125,30.757812 4,32.585938 V 30 Z"
         transform="translate(0,16)"
         id="path2431"
         inkscape:connector-curvature="0" />
      <path
         id="rect2420"
         transform="translate(0,16)"
         d="m 2,30 v 2.585938 L 0.171875,30.757812 -1.2421875,32.171875 0.5859375,34 H -2 v 2 H 0.5859375 L -1.2421875,37.828125 0.171875,39.242188 2,37.414062 V 40 H 4 V 37.414062 L 5.828125,39.242188 7.2421875,37.828125 5.4140625,36 H 8 V 34 H 5.4140625 L 7.2421875,32.171875 5.828125,30.757812 4,32.585938 V 30 Z"
         style="opacity:1;fill:#494e52;fill-opacity:1;fill-rule:nonzero;stroke:none;stroke-width:0.5;stroke-linecap:round;stroke-linejoin:round;stroke-miterlimit:4;stroke-dasharray:none;stroke-dashoffset:0;stroke-opacity:1;paint-order:markers stroke fill"
         inkscape:connector-curvature="0" />
      <circle
         style="opacity:1;fill:#70757e;fill-opacity:1;fill-rule:nonzero;stroke:#000000;stroke-width:0.5;stroke-linecap:round;stroke-linejoin:round;stroke-miterlimit:4;stroke-dasharray:none;stroke-dashoffset:0;stroke-opacity:1;paint-order:markers stroke fill"
         id="circle2418"
         cx="3"
         cy="51"
         r="4" />
      <circle
         r="4"
         cy="51"
         cx="3"
         id="path1145"
         style="opacity:1;fill:#70757e;fill-opacity:1;fill-rule:nonzero;stroke:none;stroke-width:0.5;stroke-linecap:round;stroke-linejoin:round;stroke-miterlimit:4;stroke-dasharray:none;stroke-dashoffset:0;stroke-opacity:0.90733595;paint-order:markers stroke fill" />
      <circle
         r="3"
         style="opacity:1;fill:#484b51;fill-opacity:1;fill-rule:nonzero;stroke:none;stroke-width:0.5;stroke-linecap:round;stroke-linejoin:round;stroke-miterlimit:4;stroke-dasharray:none;stroke-dashoffset:0;stroke-opacity:0.90733595;paint-order:markers stroke fill"
         id="circle1147"
         cx="3"
         cy="51" />
      <circle
         r="1"
         cy="51"
         cx="3"
         id="circle2416"
         style="opacity:1;fill:#202224;fill-opacity:1;fill-rule:nonzero;stroke:none;stroke-width:0.5;stroke-linecap:round;stroke-linejoin:round;stroke-miterlimit:4;stroke-dasharray:none;stroke-dashoffset:0;stroke-opacity:0.90733595;paint-order:markers stroke fill" />
    </g>
    <path
       inkscape:connector-curvature="0"
       id="path988"
       d="m 25,37 v 1.130859 a 4,4 0 0 0 -1.027344,0.427735 l -0.800781,-0.800782 -1.414063,1.414063 0.800782,0.800781 A 4,4 0 0 0 22.132812,41 H 21 v 2 h 1.130859 a 4,4 0 0 0 0.427735,1.027344 l -0.800782,0.800781 1.414063,1.414063 0.800781,-0.800782 A 4,4 0 0 0 25,45.867188 V 47 h 2 v -1.130859 a 4,4 0 0 0 1.027344,-0.427735 l 0.800781,0.800782 1.414063,-1.414063 -0.800782,-0.800781 A 4,4 0 0 0 29.867188,43 H 31 v -2 h -1.130859 a 4,4 0 0 0 -0.427735,-1.027344 l 0.800782,-0.800781 -1.414063,-1.414063 -0.800781,0.800782 A 4,4 0 0 0 27,38.132812 V 37 Z"
       style="opacity:1;fill:none;fill-opacity:1;fill-rule:nonzero;stroke:#000000;stroke-width:1.5;stroke-linecap:round;stroke-linejoin:round;stroke-miterlimit:4;stroke-dasharray:none;stroke-dashoffset:0;stroke-opacity:0.44705882;paint-order:normal" />
    <g
       transform="translate(23,-9)"
       id="g2453">
      <path
         inkscape:connector-curvature="0"
         id="path2441"
         transform="translate(0,16)"
         d="m 2,30 v 2.585938 L 0.171875,30.757812 -1.2421875,32.171875 0.5859375,34 H -2 v 2 H 0.5859375 L -1.2421875,37.828125 0.171875,39.242188 2,37.414062 V 40 H 4 V 37.414062 L 5.828125,39.242188 7.2421875,37.828125 5.4140625,36 H 8 V 34 H 5.4140625 L 7.2421875,32.171875 5.828125,30.757812 4,32.585938 V 30 Z"
         style="opacity:1;fill:#494e52;fill-opacity:1;fill-rule:nonzero;stroke:#000000;stroke-width:0.5;stroke-linecap:round;stroke-linejoin:round;stroke-miterlimit:4;stroke-dasharray:none;stroke-dashoffset:0;stroke-opacity:1;paint-order:markers stroke fill" />
      <path
         inkscape:connector-curvature="0"
         style="opacity:1;fill:#494e52;fill-opacity:1;fill-rule:nonzero;stroke:none;stroke-width:0.5;stroke-linecap:round;stroke-linejoin:round;stroke-miterlimit:4;stroke-dasharray:none;stroke-dashoffset:0;stroke-opacity:1;paint-order:markers stroke fill"
         d="m 2,30 v 2.585938 L 0.171875,30.757812 -1.2421875,32.171875 0.5859375,34 H -2 v 2 H 0.5859375 L -1.2421875,37.828125 0.171875,39.242188 2,37.414062 V 40 H 4 V 37.414062 L 5.828125,39.242188 7.2421875,37.828125 5.4140625,36 H 8 V 34 H 5.4140625 L 7.2421875,32.171875 5.828125,30.757812 4,32.585938 V 30 Z"
         transform="translate(0,16)"
         id="path2443" />
      <circle
         r="4"
         cy="51"
         cx="3"
         id="circle2445"
         style="opacity:1;fill:#70757e;fill-opacity:1;fill-rule:nonzero;stroke:#000000;stroke-width:0.5;stroke-linecap:round;stroke-linejoin:round;stroke-miterlimit:4;stroke-dasharray:none;stroke-dashoffset:0;stroke-opacity:1;paint-order:markers stroke fill" />
      <circle
         style="opacity:1;fill:#70757e;fill-opacity:1;fill-rule:nonzero;stroke:none;stroke-width:0.5;stroke-linecap:round;stroke-linejoin:round;stroke-miterlimit:4;stroke-dasharray:none;stroke-dashoffset:0;stroke-opacity:0.90733595;paint-order:markers stroke fill"
         id="circle2447"
         cx="3"
         cy="51"
         r="4" />
      <circle
         cy="51"
         cx="3"
         id="circle2449"
         style="opacity:1;fill:#484b51;fill-opacity:1;fill-rule:nonzero;stroke:none;stroke-width:0.5;stroke-linecap:round;stroke-linejoin:round;stroke-miterlimit:4;stroke-dasharray:none;stroke-dashoffset:0;stroke-opacity:0.90733595;paint-order:markers stroke fill"
         r="3" />
      <circle
         style="opacity:1;fill:#202224;fill-opacity:1;fill-rule:nonzero;stroke:none;stroke-width:0.5;stroke-linecap:round;stroke-linejoin:round;stroke-miterlimit:4;stroke-dasharray:none;stroke-dashoffset:0;stroke-opacity:0.90733595;paint-order:markers stroke fill"
         id="circle2451"
         cx="3"
         cy="51"
         r="1" />
    </g>
    <g
       transform="translate(-31,4)"
       id="g964" />
    <g
       id="g970"
       transform="translate(-31)" />
    <g
       transform="translate(-31,-3)"
       id="g976" />
    <g
       transform="matrix(-0.8660254,0.5,0.5,0.8660254,-16.393594,0.7464788)"
       id="g988" />
    <g
       id="g994"
       transform="matrix(-0.8660254,0.5,0.5,0.8660254,-18.393594,-2.7176228)" />
    <g
       transform="matrix(-0.8660254,0.5,0.5,0.8660254,-19.893594,-5.315699)"
       id="g1000" />
  </g>
</svg>
